{
  "asset" : {
    "generator" : "UE Viewer (umodel) build 1590",
    "version" : "2.0"
  },
  "scene" : 0,
  "scenes" : [
    {
      "nodes" : [ 0 ]
    }
  ],
  "nodes" : [
    {
      "name" : "SM_Electronic",
      "mesh" : 0
    }
  ],
  "materials" : [
    {
      "name" : "MI_Electronic",
      "pbrMetallicRoughness" : {
        "baseColorFactor" : [ 0.3, 0.3, 0.3, 1.0 ],
        "metallicFactor" : 0.1,
        "roughnessFactor" : 0.5
      }
    }
  ],
  "meshes" : [
    {
      "primitives" : [
        {
          "attributes" : {
            "POSITION" : 1,
            "NORMAL" : 2,
            "TANGENT" : 3,
            "TEXCOORD_0" : 4,
            "TEXCOORD_1" : 5
          },
          "indices" : 0,
          "material" : 0
        }
      ],
      "name" : "SM_Electronic"
    }
  ],
  "buffers" : [
    {
      "uri" : "SM_Electronic.bin",
      "byteLength" : 197056
    }
  ],
  "bufferViews" : [
    {
      "buffer" : 0,
      "byteOffset" : 0,
      "byteLength" : 7160
    },
    {
      "buffer" : 0,
      "byteOffset" : 7160,
      "byteLength" : 40692
    },
    {
      "buffer" : 0,
      "byteOffset" : 47852,
      "byteLength" : 40692
    },
    {
      "buffer" : 0,
      "byteOffset" : 88544,
      "byteLength" : 54256
    },
    {
      "buffer" : 0,
      "byteOffset" : 142800,
      "byteLength" : 27128
    },
    {
      "buffer" : 0,
      "byteOffset" : 169928,
      "byteLength" : 27128
    }
  ],
  "accessors" : [
    {
      "bufferView" : 0,
      "componentType" : 5123,
      "count" : 3579,
      "type" : "SCALAR"
    },
    {
      "bufferView" : 1,
      "min" : [ -0.134544, -0.193838, -0.131061 ],
      "max" : [ 0.134544, -0.000425516, 0.192699 ],
      "componentType" : 5126,
      "count" : 3391,
      "type" : "VEC3"
    },
    {
      "bufferView" : 2,
      "componentType" : 5126,
      "count" : 3391,
      "type" : "VEC3"
    },
    {
      "bufferView" : 3,
      "componentType" : 5126,
      "count" : 3391,
      "type" : "VEC4"
    },
    {
      "bufferView" : 4,
      "componentType" : 5126,
      "count" : 3391,
      "type" : "VEC2"
    },
    {
      "bufferView" : 5,
      "componentType" : 5126,
      "count" : 3391,
      "type" : "VEC2"
    }
  ]
}
