{
  "asset" : {
    "generator" : "UE Viewer (umodel) build 1590",
    "version" : "2.0"
  },
  "scene" : 0,
  "scenes" : [
    {
      "nodes" : [ 0 ]
    }
  ],
  "nodes" : [
    {
      "name" : "SM_SculptRock_6",
      "mesh" : 0
    }
  ],
  "materials" : [
    {
      "name" : "MI_SculptRock_6",
      "pbrMetallicRoughness" : {
        "baseColorFactor" : [ 0.3, 0.3, 0.3, 1.0 ],
        "metallicFactor" : 0.1,
        "roughnessFactor" : 0.5
      }
    }
  ],
  "meshes" : [
    {
      "primitives" : [
        {
          "attributes" : {
            "POSITION" : 1,
            "NORMAL" : 2,
            "TANGENT" : 3,
            "TEXCOORD_0" : 4,
            "TEXCOORD_1" : 5
          },
          "indices" : 0,
          "material" : 0
        }
      ],
      "name" : "SM_SculptRock_6"
    }
  ],
  "buffers" : [
    {
      "uri" : "SM_SculptRock_6.bin",
      "byteLength" : 300432
    }
  ],
  "bufferViews" : [
    {
      "buffer" : 0,
      "byteOffset" : 0,
      "byteLength" : 51624
    },
    {
      "buffer" : 0,
      "byteOffset" : 51624,
      "byteLength" : 53316
    },
    {
      "buffer" : 0,
      "byteOffset" : 104940,
      "byteLength" : 53316
    },
    {
      "buffer" : 0,
      "byteOffset" : 158256,
      "byteLength" : 71088
    },
    {
      "buffer" : 0,
      "byteOffset" : 229344,
      "byteLength" : 35544
    },
    {
      "buffer" : 0,
      "byteOffset" : 264888,
      "byteLength" : 35544
    }
  ],
  "accessors" : [
    {
      "bufferView" : 0,
      "componentType" : 5123,
      "count" : 25812,
      "type" : "SCALAR"
    },
    {
      "bufferView" : 1,
      "min" : [ -7.05298, -0.0290205, -4.66692 ],
      "max" : [ 7.05298, 22.5663, 4.66692 ],
      "componentType" : 5126,
      "count" : 4443,
      "type" : "VEC3"
    },
    {
      "bufferView" : 2,
      "componentType" : 5126,
      "count" : 4443,
      "type" : "VEC3"
    },
    {
      "bufferView" : 3,
      "componentType" : 5126,
      "count" : 4443,
      "type" : "VEC4"
    },
    {
      "bufferView" : 4,
      "componentType" : 5126,
      "count" : 4443,
      "type" : "VEC2"
    },
    {
      "bufferView" : 5,
      "componentType" : 5126,
      "count" : 4443,
      "type" : "VEC2"
    }
  ]
}
