{
  "asset" : {
    "generator" : "UE Viewer (umodel) build 1590",
    "version" : "2.0"
  },
  "scene" : 0,
  "scenes" : [
    {
      "nodes" : [ 0 ]
    }
  ],
  "nodes" : [
    {
      "name" : "SM_DockingDamaged02",
      "mesh" : 0
    }
  ],
  "materials" : [
    {
      "name" : "MI_Base_WallVP",
      "pbrMetallicRoughness" : {
        "baseColorFactor" : [ 0.3, 0.3, 0.3, 1.0 ],
        "metallicFactor" : 0.1,
        "roughnessFactor" : 0.5
      }
    },
    {
      "name" : "MI_Plastic_Gloss_Red_A1",
      "pbrMetallicRoughness" : {
        "baseColorFactor" : [ 0.9, 0.3, 0.3, 1.0 ],
        "metallicFactor" : 0.1,
        "roughnessFactor" : 0.5
      }
    },
    {
      "name" : "MI_Metal_Matte_A1",
      "pbrMetallicRoughness" : {
        "baseColorFactor" : [ 0.3, 0.9, 0.3, 1.0 ],
        "metallicFactor" : 0.1,
        "roughnessFactor" : 0.5
      }
    },
    {
      "name" : "M_Mesh_Decal",
      "pbrMetallicRoughness" : {
        "baseColorFactor" : [ 0.3, 0.3, 0.9, 1.0 ],
        "metallicFactor" : 0.1,
        "roughnessFactor" : 0.5
      }
    }
  ],
  "meshes" : [
    {
      "primitives" : [
        {
          "attributes" : {
            "POSITION" : 1,
            "NORMAL" : 2,
            "TANGENT" : 3,
            "TEXCOORD_0" : 4,
            "TEXCOORD_1" : 5
          },
          "indices" : 0,
          "material" : 0
        },
        {
          "attributes" : {
            "POSITION" : 7,
            "NORMAL" : 8,
            "TANGENT" : 9,
            "TEXCOORD_0" : 10,
            "TEXCOORD_1" : 11
          },
          "indices" : 6,
          "material" : 1
        },
        {
          "attributes" : {
            "POSITION" : 13,
            "NORMAL" : 14,
            "TANGENT" : 15,
            "TEXCOORD_0" : 16,
            "TEXCOORD_1" : 17
          },
          "indices" : 12,
          "material" : 2
        },
        {
          "attributes" : {
            "POSITION" : 19,
            "NORMAL" : 20,
            "TANGENT" : 21,
            "TEXCOORD_0" : 22,
            "TEXCOORD_1" : 23
          },
          "indices" : 18,
          "material" : 3
        }
      ],
      "name" : "SM_DockingDamaged02"
    }
  ],
  "buffers" : [
    {
      "uri" : "SM_DockingDamaged02.bin",
      "byteLength" : 526088
    }
  ],
  "bufferViews" : [
    {
      "buffer" : 0,
      "byteOffset" : 0,
      "byteLength" : 49748
    },
    {
      "buffer" : 0,
      "byteOffset" : 49748,
      "byteLength" : 94188
    },
    {
      "buffer" : 0,
      "byteOffset" : 143936,
      "byteLength" : 94188
    },
    {
      "buffer" : 0,
      "byteOffset" : 238124,
      "byteLength" : 125584
    },
    {
      "buffer" : 0,
      "byteOffset" : 363708,
      "byteLength" : 62792
    },
    {
      "buffer" : 0,
      "byteOffset" : 426500,
      "byteLength" : 62792
    },
    {
      "buffer" : 0,
      "byteOffset" : 489292,
      "byteLength" : 668
    },
    {
      "buffer" : 0,
      "byteOffset" : 489960,
      "byteLength" : 1212
    },
    {
      "buffer" : 0,
      "byteOffset" : 491172,
      "byteLength" : 1212
    },
    {
      "buffer" : 0,
      "byteOffset" : 492384,
      "byteLength" : 1616
    },
    {
      "buffer" : 0,
      "byteOffset" : 494000,
      "byteLength" : 808
    },
    {
      "buffer" : 0,
      "byteOffset" : 494808,
      "byteLength" : 808
    },
    {
      "buffer" : 0,
      "byteOffset" : 495616,
      "byteLength" : 2328
    },
    {
      "buffer" : 0,
      "byteOffset" : 497944,
      "byteLength" : 5520
    },
    {
      "buffer" : 0,
      "byteOffset" : 503464,
      "byteLength" : 5520
    },
    {
      "buffer" : 0,
      "byteOffset" : 508984,
      "byteLength" : 7360
    },
    {
      "buffer" : 0,
      "byteOffset" : 516344,
      "byteLength" : 3680
    },
    {
      "buffer" : 0,
      "byteOffset" : 520024,
      "byteLength" : 3680
    },
    {
      "buffer" : 0,
      "byteOffset" : 523704,
      "byteLength" : 144
    },
    {
      "buffer" : 0,
      "byteOffset" : 523848,
      "byteLength" : 480
    },
    {
      "buffer" : 0,
      "byteOffset" : 524328,
      "byteLength" : 480
    },
    {
      "buffer" : 0,
      "byteOffset" : 524808,
      "byteLength" : 640
    },
    {
      "buffer" : 0,
      "byteOffset" : 525448,
      "byteLength" : 320
    },
    {
      "buffer" : 0,
      "byteOffset" : 525768,
      "byteLength" : 320
    }
  ],
  "accessors" : [
    {
      "bufferView" : 0,
      "componentType" : 5123,
      "count" : 24873,
      "type" : "SCALAR"
    },
    {
      "bufferView" : 1,
      "min" : [ -23.1644, -24.7181, -20.1454 ],
      "max" : [ 23.1644, 24.7181, 20.1454 ],
      "componentType" : 5126,
      "count" : 7849,
      "type" : "VEC3"
    },
    {
      "bufferView" : 2,
      "componentType" : 5126,
      "count" : 7849,
      "type" : "VEC3"
    },
    {
      "bufferView" : 3,
      "componentType" : 5126,
      "count" : 7849,
      "type" : "VEC4"
    },
    {
      "bufferView" : 4,
      "componentType" : 5126,
      "count" : 7849,
      "type" : "VEC2"
    },
    {
      "bufferView" : 5,
      "componentType" : 5126,
      "count" : 7849,
      "type" : "VEC2"
    },
    {
      "bufferView" : 6,
      "componentType" : 5123,
      "count" : 333,
      "type" : "SCALAR"
    },
    {
      "bufferView" : 7,
      "min" : [ -17.6234, 11.4456, -8.96106 ],
      "max" : [ 10.8503, 24.7181, 9.53171 ],
      "componentType" : 5126,
      "count" : 101,
      "type" : "VEC3"
    },
    {
      "bufferView" : 8,
      "componentType" : 5126,
      "count" : 101,
      "type" : "VEC3"
    },
    {
      "bufferView" : 9,
      "componentType" : 5126,
      "count" : 101,
      "type" : "VEC4"
    },
    {
      "bufferView" : 10,
      "componentType" : 5126,
      "count" : 101,
      "type" : "VEC2"
    },
    {
      "bufferView" : 11,
      "componentType" : 5126,
      "count" : 101,
      "type" : "VEC2"
    },
    {
      "bufferView" : 12,
      "componentType" : 5123,
      "count" : 1164,
      "type" : "SCALAR"
    },
    {
      "bufferView" : 13,
      "min" : [ -21.4016, -19.122, -11.8227 ],
      "max" : [ 21.4012, 23.9213, 20.1454 ],
      "componentType" : 5126,
      "count" : 460,
      "type" : "VEC3"
    },
    {
      "bufferView" : 14,
      "componentType" : 5126,
      "count" : 460,
      "type" : "VEC3"
    },
    {
      "bufferView" : 15,
      "componentType" : 5126,
      "count" : 460,
      "type" : "VEC4"
    },
    {
      "bufferView" : 16,
      "componentType" : 5126,
      "count" : 460,
      "type" : "VEC2"
    },
    {
      "bufferView" : 17,
      "componentType" : 5126,
      "count" : 460,
      "type" : "VEC2"
    },
    {
      "bufferView" : 18,
      "componentType" : 5123,
      "count" : 72,
      "type" : "SCALAR"
    },
    {
      "bufferView" : 19,
      "min" : [ -4.15049, -4.08743, -17.0725 ],
      "max" : [ 4.14846, 4.75552, -17.0725 ],
      "componentType" : 5126,
      "count" : 40,
      "type" : "VEC3"
    },
    {
      "bufferView" : 20,
      "componentType" : 5126,
      "count" : 40,
      "type" : "VEC3"
    },
    {
      "bufferView" : 21,
      "componentType" : 5126,
      "count" : 40,
      "type" : "VEC4"
    },
    {
      "bufferView" : 22,
      "componentType" : 5126,
      "count" : 40,
      "type" : "VEC2"
    },
    {
      "bufferView" : 23,
      "componentType" : 5126,
      "count" : 40,
      "type" : "VEC2"
    }
  ]
}
