{
  "asset" : {
    "generator" : "UE Viewer (umodel) build 1590",
    "version" : "2.0"
  },
  "scene" : 0,
  "scenes" : [
    {
      "nodes" : [ 0 ]
    }
  ],
  "nodes" : [
    {
      "name" : "SM_EngineerShip_Door",
      "mesh" : 0
    }
  ],
  "materials" : [
    {
      "name" : "MI_Base_WallVP",
      "pbrMetallicRoughness" : {
        "baseColorFactor" : [ 0.3, 0.3, 0.3, 1.0 ],
        "metallicFactor" : 0.1,
        "roughnessFactor" : 0.5
      }
    },
    {
      "name" : "M_Glass_Transparent1_Illuminator",
      "pbrMetallicRoughness" : {
        "baseColorFactor" : [ 0.9, 0.3, 0.3, 1.0 ],
        "metallicFactor" : 0.1,
        "roughnessFactor" : 0.5
      }
    }
  ],
  "meshes" : [
    {
      "primitives" : [
        {
          "attributes" : {
            "POSITION" : 1,
            "NORMAL" : 2,
            "TANGENT" : 3,
            "TEXCOORD_0" : 4,
            "TEXCOORD_1" : 5,
            "TEXCOORD_2" : 6
          },
          "indices" : 0,
          "material" : 0
        },
        {
          "attributes" : {
            "POSITION" : 8,
            "NORMAL" : 9,
            "TANGENT" : 10,
            "TEXCOORD_0" : 11,
            "TEXCOORD_1" : 12,
            "TEXCOORD_2" : 13
          },
          "indices" : 7,
          "material" : 1
        }
      ],
      "name" : "SM_EngineerShip_Door"
    }
  ],
  "buffers" : [
    {
      "uri" : "SM_EngineerShip_Door.bin",
      "byteLength" : 1042528
    }
  ],
  "bufferViews" : [
    {
      "buffer" : 0,
      "byteOffset" : 0,
      "byteLength" : 115440
    },
    {
      "buffer" : 0,
      "byteOffset" : 115440,
      "byteLength" : 173676
    },
    {
      "buffer" : 0,
      "byteOffset" : 289116,
      "byteLength" : 173676
    },
    {
      "buffer" : 0,
      "byteOffset" : 462792,
      "byteLength" : 231568
    },
    {
      "buffer" : 0,
      "byteOffset" : 694360,
      "byteLength" : 115784
    },
    {
      "buffer" : 0,
      "byteOffset" : 810144,
      "byteLength" : 115784
    },
    {
      "buffer" : 0,
      "byteOffset" : 925928,
      "byteLength" : 115784
    },
    {
      "buffer" : 0,
      "byteOffset" : 1041712,
      "byteLength" : 48
    },
    {
      "buffer" : 0,
      "byteOffset" : 1041760,
      "byteLength" : 144
    },
    {
      "buffer" : 0,
      "byteOffset" : 1041904,
      "byteLength" : 144
    },
    {
      "buffer" : 0,
      "byteOffset" : 1042048,
      "byteLength" : 192
    },
    {
      "buffer" : 0,
      "byteOffset" : 1042240,
      "byteLength" : 96
    },
    {
      "buffer" : 0,
      "byteOffset" : 1042336,
      "byteLength" : 96
    },
    {
      "buffer" : 0,
      "byteOffset" : 1042432,
      "byteLength" : 96
    }
  ],
  "accessors" : [
    {
      "bufferView" : 0,
      "componentType" : 5123,
      "count" : 57720,
      "type" : "SCALAR"
    },
    {
      "bufferView" : 1,
      "min" : [ -0.237999, -1.63358, -1.63356 ],
      "max" : [ 0.237999, 1.63358, 1.63356 ],
      "componentType" : 5126,
      "count" : 14473,
      "type" : "VEC3"
    },
    {
      "bufferView" : 2,
      "componentType" : 5126,
      "count" : 14473,
      "type" : "VEC3"
    },
    {
      "bufferView" : 3,
      "componentType" : 5126,
      "count" : 14473,
      "type" : "VEC4"
    },
    {
      "bufferView" : 4,
      "componentType" : 5126,
      "count" : 14473,
      "type" : "VEC2"
    },
    {
      "bufferView" : 5,
      "componentType" : 5126,
      "count" : 14473,
      "type" : "VEC2"
    },
    {
      "bufferView" : 6,
      "componentType" : 5126,
      "count" : 14473,
      "type" : "VEC2"
    },
    {
      "bufferView" : 7,
      "componentType" : 5123,
      "count" : 24,
      "type" : "SCALAR"
    },
    {
      "bufferView" : 8,
      "min" : [ -0.0389627, -0.316496, -0.514063 ],
      "max" : [ 0.0367356, 0.711633, 0.514064 ],
      "componentType" : 5126,
      "count" : 12,
      "type" : "VEC3"
    },
    {
      "bufferView" : 9,
      "componentType" : 5126,
      "count" : 12,
      "type" : "VEC3"
    },
    {
      "bufferView" : 10,
      "componentType" : 5126,
      "count" : 12,
      "type" : "VEC4"
    },
    {
      "bufferView" : 11,
      "componentType" : 5126,
      "count" : 12,
      "type" : "VEC2"
    },
    {
      "bufferView" : 12,
      "componentType" : 5126,
      "count" : 12,
      "type" : "VEC2"
    },
    {
      "bufferView" : 13,
      "componentType" : 5126,
      "count" : 12,
      "type" : "VEC2"
    }
  ]
}
