{
  "asset" : {
    "generator" : "UE Viewer (umodel) build 1590",
    "version" : "2.0"
  },
  "scene" : 0,
  "scenes" : [
    {
      "nodes" : [ 0 ]
    }
  ],
  "nodes" : [
    {
      "name" : "SM_Cabin_Door",
      "mesh" : 0
    }
  ],
  "materials" : [
    {
      "name" : "MI_Base_Wall",
      "pbrMetallicRoughness" : {
        "baseColorFactor" : [ 0.3, 0.3, 0.3, 1.0 ],
        "metallicFactor" : 0.1,
        "roughnessFactor" : 0.5
      }
    }
  ],
  "meshes" : [
    {
      "primitives" : [
        {
          "attributes" : {
            "POSITION" : 1,
            "NORMAL" : 2,
            "TANGENT" : 3,
            "TEXCOORD_0" : 4,
            "TEXCOORD_1" : 5
          },
          "indices" : 0,
          "material" : 0
        }
      ],
      "name" : "SM_Cabin_Door"
    }
  ],
  "buffers" : [
    {
      "uri" : "SM_Cabin_Door.bin",
      "byteLength" : 322688
    }
  ],
  "bufferViews" : [
    {
      "buffer" : 0,
      "byteOffset" : 0,
      "byteLength" : 28464
    },
    {
      "buffer" : 0,
      "byteOffset" : 28464,
      "byteLength" : 63048
    },
    {
      "buffer" : 0,
      "byteOffset" : 91512,
      "byteLength" : 63048
    },
    {
      "buffer" : 0,
      "byteOffset" : 154560,
      "byteLength" : 84064
    },
    {
      "buffer" : 0,
      "byteOffset" : 238624,
      "byteLength" : 42032
    },
    {
      "buffer" : 0,
      "byteOffset" : 280656,
      "byteLength" : 42032
    }
  ],
  "accessors" : [
    {
      "bufferView" : 0,
      "componentType" : 5123,
      "count" : 14232,
      "type" : "SCALAR"
    },
    {
      "bufferView" : 1,
      "min" : [ -0.104082, 0.00320465, -1.00016 ],
      "max" : [ 0.104083, 3.06968, 1.00016 ],
      "componentType" : 5126,
      "count" : 5254,
      "type" : "VEC3"
    },
    {
      "bufferView" : 2,
      "componentType" : 5126,
      "count" : 5254,
      "type" : "VEC3"
    },
    {
      "bufferView" : 3,
      "componentType" : 5126,
      "count" : 5254,
      "type" : "VEC4"
    },
    {
      "bufferView" : 4,
      "componentType" : 5126,
      "count" : 5254,
      "type" : "VEC2"
    },
    {
      "bufferView" : 5,
      "componentType" : 5126,
      "count" : 5254,
      "type" : "VEC2"
    }
  ]
}
