{
  "asset" : {
    "generator" : "UE Viewer (umodel) build 1590",
    "version" : "2.0"
  },
  "scene" : 0,
  "scenes" : [
    {
      "nodes" : [ 0 ]
    }
  ],
  "nodes" : [
    {
      "name" : "SM_BrokenShipConstrctor_Full_01",
      "mesh" : 0
    }
  ],
  "materials" : [
    {
      "name" : "MI_Base_WallVP",
      "pbrMetallicRoughness" : {
        "baseColorFactor" : [ 0.3, 0.3, 0.3, 1.0 ],
        "metallicFactor" : 0.1,
        "roughnessFactor" : 0.5
      }
    },
    {
      "name" : "MI_Metal_Glossy_A3",
      "pbrMetallicRoughness" : {
        "baseColorFactor" : [ 0.9, 0.3, 0.3, 1.0 ],
        "metallicFactor" : 0.1,
        "roughnessFactor" : 0.5
      }
    }
  ],
  "meshes" : [
    {
      "primitives" : [
        {
          "attributes" : {
            "POSITION" : 1,
            "NORMAL" : 2,
            "TANGENT" : 3,
            "TEXCOORD_0" : 4,
            "TEXCOORD_1" : 5
          },
          "indices" : 0,
          "material" : 0
        },
        {
          "attributes" : {
            "POSITION" : 7,
            "NORMAL" : 8,
            "TANGENT" : 9,
            "TEXCOORD_0" : 10,
            "TEXCOORD_1" : 11
          },
          "indices" : 6,
          "material" : 1
        }
      ],
      "name" : "SM_BrokenShipConstrctor_Full_01"
    }
  ],
  "buffers" : [
    {
      "uri" : "SM_BrokenShipConstrctor_Full_01.bin",
      "byteLength" : 1027684
    }
  ],
  "bufferViews" : [
    {
      "buffer" : 0,
      "byteOffset" : 0,
      "byteLength" : 93912
    },
    {
      "buffer" : 0,
      "byteOffset" : 93912,
      "byteLength" : 194532
    },
    {
      "buffer" : 0,
      "byteOffset" : 288444,
      "byteLength" : 194532
    },
    {
      "buffer" : 0,
      "byteOffset" : 482976,
      "byteLength" : 259376
    },
    {
      "buffer" : 0,
      "byteOffset" : 742352,
      "byteLength" : 129688
    },
    {
      "buffer" : 0,
      "byteOffset" : 872040,
      "byteLength" : 129688
    },
    {
      "buffer" : 0,
      "byteOffset" : 1001728,
      "byteLength" : 2100
    },
    {
      "buffer" : 0,
      "byteOffset" : 1003828,
      "byteLength" : 5112
    },
    {
      "buffer" : 0,
      "byteOffset" : 1008940,
      "byteLength" : 5112
    },
    {
      "buffer" : 0,
      "byteOffset" : 1014052,
      "byteLength" : 6816
    },
    {
      "buffer" : 0,
      "byteOffset" : 1020868,
      "byteLength" : 3408
    },
    {
      "buffer" : 0,
      "byteOffset" : 1024276,
      "byteLength" : 3408
    }
  ],
  "accessors" : [
    {
      "bufferView" : 0,
      "componentType" : 5123,
      "count" : 46956,
      "type" : "SCALAR"
    },
    {
      "bufferView" : 1,
      "min" : [ -14.7481, -6.71287, -23.5964 ],
      "max" : [ 7.38648, 6.68293, 9.77832 ],
      "componentType" : 5126,
      "count" : 16211,
      "type" : "VEC3"
    },
    {
      "bufferView" : 2,
      "componentType" : 5126,
      "count" : 16211,
      "type" : "VEC3"
    },
    {
      "bufferView" : 3,
      "componentType" : 5126,
      "count" : 16211,
      "type" : "VEC4"
    },
    {
      "bufferView" : 4,
      "componentType" : 5126,
      "count" : 16211,
      "type" : "VEC2"
    },
    {
      "bufferView" : 5,
      "componentType" : 5126,
      "count" : 16211,
      "type" : "VEC2"
    },
    {
      "bufferView" : 6,
      "componentType" : 5123,
      "count" : 1050,
      "type" : "SCALAR"
    },
    {
      "bufferView" : 7,
      "min" : [ -13.2561, -5, -22.5786 ],
      "max" : [ 5, 5.80099, 8.54563 ],
      "componentType" : 5126,
      "count" : 426,
      "type" : "VEC3"
    },
    {
      "bufferView" : 8,
      "componentType" : 5126,
      "count" : 426,
      "type" : "VEC3"
    },
    {
      "bufferView" : 9,
      "componentType" : 5126,
      "count" : 426,
      "type" : "VEC4"
    },
    {
      "bufferView" : 10,
      "componentType" : 5126,
      "count" : 426,
      "type" : "VEC2"
    },
    {
      "bufferView" : 11,
      "componentType" : 5126,
      "count" : 426,
      "type" : "VEC2"
    }
  ]
}
