{
  "asset" : {
    "generator" : "UE Viewer (umodel) build 1590",
    "version" : "2.0"
  },
  "scene" : 0,
  "scenes" : [
    {
      "nodes" : [ 0 ]
    }
  ],
  "nodes" : [
    {
      "name" : "SM_MetalDeposit_Full",
      "mesh" : 0
    }
  ],
  "materials" : [
    {
      "name" : "MI_Asteroids_3_bigOpt",
      "pbrMetallicRoughness" : {
        "baseColorFactor" : [ 0.3, 0.3, 0.3, 1.0 ],
        "metallicFactor" : 0.1,
        "roughnessFactor" : 0.5
      }
    },
    {
      "name" : "MI_CleanMetall",
      "pbrMetallicRoughness" : {
        "baseColorFactor" : [ 0.9, 0.3, 0.3, 1.0 ],
        "metallicFactor" : 0.1,
        "roughnessFactor" : 0.5
      }
    }
  ],
  "meshes" : [
    {
      "primitives" : [
        {
          "attributes" : {
            "POSITION" : 1,
            "NORMAL" : 2,
            "TANGENT" : 3,
            "TEXCOORD_0" : 4,
            "TEXCOORD_1" : 5
          },
          "indices" : 0,
          "material" : 0
        },
        {
          "attributes" : {
            "POSITION" : 7,
            "NORMAL" : 8,
            "TANGENT" : 9,
            "TEXCOORD_0" : 10,
            "TEXCOORD_1" : 11
          },
          "indices" : 6,
          "material" : 1
        }
      ],
      "name" : "SM_MetalDeposit_Full"
    }
  ],
  "buffers" : [
    {
      "uri" : "SM_MetalDeposit_Full.bin",
      "byteLength" : 53116
    }
  ],
  "bufferViews" : [
    {
      "buffer" : 0,
      "byteOffset" : 0,
      "byteLength" : 6620
    },
    {
      "buffer" : 0,
      "byteOffset" : 6620,
      "byteLength" : 6840
    },
    {
      "buffer" : 0,
      "byteOffset" : 13460,
      "byteLength" : 6840
    },
    {
      "buffer" : 0,
      "byteOffset" : 20300,
      "byteLength" : 9120
    },
    {
      "buffer" : 0,
      "byteOffset" : 29420,
      "byteLength" : 4560
    },
    {
      "buffer" : 0,
      "byteOffset" : 33980,
      "byteLength" : 4560
    },
    {
      "buffer" : 0,
      "byteOffset" : 38540,
      "byteLength" : 2312
    },
    {
      "buffer" : 0,
      "byteOffset" : 40852,
      "byteLength" : 2628
    },
    {
      "buffer" : 0,
      "byteOffset" : 43480,
      "byteLength" : 2628
    },
    {
      "buffer" : 0,
      "byteOffset" : 46108,
      "byteLength" : 3504
    },
    {
      "buffer" : 0,
      "byteOffset" : 49612,
      "byteLength" : 1752
    },
    {
      "buffer" : 0,
      "byteOffset" : 51364,
      "byteLength" : 1752
    }
  ],
  "accessors" : [
    {
      "bufferView" : 0,
      "componentType" : 5123,
      "count" : 3309,
      "type" : "SCALAR"
    },
    {
      "bufferView" : 1,
      "min" : [ -1.84252, -0.0488553, -1.81453 ],
      "max" : [ 1.84252, 0.598866, 1.81453 ],
      "componentType" : 5126,
      "count" : 570,
      "type" : "VEC3"
    },
    {
      "bufferView" : 2,
      "componentType" : 5126,
      "count" : 570,
      "type" : "VEC3"
    },
    {
      "bufferView" : 3,
      "componentType" : 5126,
      "count" : 570,
      "type" : "VEC4"
    },
    {
      "bufferView" : 4,
      "componentType" : 5126,
      "count" : 570,
      "type" : "VEC2"
    },
    {
      "bufferView" : 5,
      "componentType" : 5126,
      "count" : 570,
      "type" : "VEC2"
    },
    {
      "bufferView" : 6,
      "componentType" : 5123,
      "count" : 1155,
      "type" : "SCALAR"
    },
    {
      "bufferView" : 7,
      "min" : [ -0.619098, 0.172995, -0.504504 ],
      "max" : [ 0.4125, 0.553685, 0.683209 ],
      "componentType" : 5126,
      "count" : 219,
      "type" : "VEC3"
    },
    {
      "bufferView" : 8,
      "componentType" : 5126,
      "count" : 219,
      "type" : "VEC3"
    },
    {
      "bufferView" : 9,
      "componentType" : 5126,
      "count" : 219,
      "type" : "VEC4"
    },
    {
      "bufferView" : 10,
      "componentType" : 5126,
      "count" : 219,
      "type" : "VEC2"
    },
    {
      "bufferView" : 11,
      "componentType" : 5126,
      "count" : 219,
      "type" : "VEC2"
    }
  ]
}
