{
  "asset" : {
    "generator" : "UE Viewer (umodel) build 1590",
    "version" : "2.0"
  },
  "scene" : 0,
  "scenes" : [
    {
      "nodes" : [ 0 ]
    }
  ],
  "nodes" : [
    {
      "name" : "SM_Desert_CliffRock_02",
      "mesh" : 0
    }
  ],
  "materials" : [
    {
      "name" : "MI_Desert_CliffRock02",
      "pbrMetallicRoughness" : {
        "baseColorFactor" : [ 0.3, 0.3, 0.3, 1.0 ],
        "metallicFactor" : 0.1,
        "roughnessFactor" : 0.5
      }
    }
  ],
  "meshes" : [
    {
      "primitives" : [
        {
          "attributes" : {
            "POSITION" : 1,
            "NORMAL" : 2,
            "TANGENT" : 3,
            "TEXCOORD_0" : 4
          },
          "indices" : 0,
          "material" : 0
        }
      ],
      "name" : "SM_Desert_CliffRock_02"
    }
  ],
  "buffers" : [
    {
      "uri" : "SM_Desert_CliffRock_02.bin",
      "byteLength" : 45036
    }
  ],
  "bufferViews" : [
    {
      "buffer" : 0,
      "byteOffset" : 0,
      "byteLength" : 8172
    },
    {
      "buffer" : 0,
      "byteOffset" : 8172,
      "byteLength" : 9216
    },
    {
      "buffer" : 0,
      "byteOffset" : 17388,
      "byteLength" : 9216
    },
    {
      "buffer" : 0,
      "byteOffset" : 26604,
      "byteLength" : 12288
    },
    {
      "buffer" : 0,
      "byteOffset" : 38892,
      "byteLength" : 6144
    }
  ],
  "accessors" : [
    {
      "bufferView" : 0,
      "componentType" : 5123,
      "count" : 4086,
      "type" : "SCALAR"
    },
    {
      "bufferView" : 1,
      "min" : [ -2.26265, -8.99122, -3.80415 ],
      "max" : [ 2.26265, 8.99122, 3.80415 ],
      "componentType" : 5126,
      "count" : 768,
      "type" : "VEC3"
    },
    {
      "bufferView" : 2,
      "componentType" : 5126,
      "count" : 768,
      "type" : "VEC3"
    },
    {
      "bufferView" : 3,
      "componentType" : 5126,
      "count" : 768,
      "type" : "VEC4"
    },
    {
      "bufferView" : 4,
      "componentType" : 5126,
      "count" : 768,
      "type" : "VEC2"
    }
  ]
}
