{
  "asset" : {
    "generator" : "UE Viewer (umodel) build 1590",
    "version" : "2.0"
  },
  "scene" : 0,
  "scenes" : [
    {
      "nodes" : [ 0 ]
    }
  ],
  "nodes" : [
    {
      "name" : "SM_Cargo",
      "mesh" : 0
    }
  ],
  "materials" : [
    {
      "name" : "MI_Cargo",
      "pbrMetallicRoughness" : {
        "baseColorFactor" : [ 0.3, 0.3, 0.3, 1.0 ],
        "metallicFactor" : 0.1,
        "roughnessFactor" : 0.5
      }
    },
    {
      "name" : "MI_Cargo",
      "pbrMetallicRoughness" : {
        "baseColorFactor" : [ 0.9, 0.3, 0.3, 1.0 ],
        "metallicFactor" : 0.1,
        "roughnessFactor" : 0.5
      }
    }
  ],
  "meshes" : [
    {
      "primitives" : [
        {
          "attributes" : {
            "POSITION" : 1,
            "NORMAL" : 2,
            "TANGENT" : 3,
            "TEXCOORD_0" : 4,
            "TEXCOORD_1" : 5,
            "TEXCOORD_2" : 6
          },
          "indices" : 0,
          "material" : 0
        },
        {
          "attributes" : {
            "POSITION" : 8,
            "NORMAL" : 9,
            "TANGENT" : 10,
            "TEXCOORD_0" : 11,
            "TEXCOORD_1" : 12,
            "TEXCOORD_2" : 13
          },
          "indices" : 7,
          "material" : 1
        }
      ],
      "name" : "SM_Cargo"
    }
  ],
  "buffers" : [
    {
      "uri" : "SM_Cargo.bin",
      "byteLength" : 278056
    }
  ],
  "bufferViews" : [
    {
      "buffer" : 0,
      "byteOffset" : 0,
      "byteLength" : 11256
    },
    {
      "buffer" : 0,
      "byteOffset" : 11256,
      "byteLength" : 23712
    },
    {
      "buffer" : 0,
      "byteOffset" : 34968,
      "byteLength" : 23712
    },
    {
      "buffer" : 0,
      "byteOffset" : 58680,
      "byteLength" : 31616
    },
    {
      "buffer" : 0,
      "byteOffset" : 90296,
      "byteLength" : 15808
    },
    {
      "buffer" : 0,
      "byteOffset" : 106104,
      "byteLength" : 15808
    },
    {
      "buffer" : 0,
      "byteOffset" : 121912,
      "byteLength" : 15808
    },
    {
      "buffer" : 0,
      "byteOffset" : 137720,
      "byteLength" : 16560
    },
    {
      "buffer" : 0,
      "byteOffset" : 154280,
      "byteLength" : 23208
    },
    {
      "buffer" : 0,
      "byteOffset" : 177488,
      "byteLength" : 23208
    },
    {
      "buffer" : 0,
      "byteOffset" : 200696,
      "byteLength" : 30944
    },
    {
      "buffer" : 0,
      "byteOffset" : 231640,
      "byteLength" : 15472
    },
    {
      "buffer" : 0,
      "byteOffset" : 247112,
      "byteLength" : 15472
    },
    {
      "buffer" : 0,
      "byteOffset" : 262584,
      "byteLength" : 15472
    }
  ],
  "accessors" : [
    {
      "bufferView" : 0,
      "componentType" : 5123,
      "count" : 5628,
      "type" : "SCALAR"
    },
    {
      "bufferView" : 1,
      "min" : [ -0.314739, 0.136951, -0.229679 ],
      "max" : [ 0.314739, 0.215219, 0.222856 ],
      "componentType" : 5126,
      "count" : 1976,
      "type" : "VEC3"
    },
    {
      "bufferView" : 2,
      "componentType" : 5126,
      "count" : 1976,
      "type" : "VEC3"
    },
    {
      "bufferView" : 3,
      "componentType" : 5126,
      "count" : 1976,
      "type" : "VEC4"
    },
    {
      "bufferView" : 4,
      "componentType" : 5126,
      "count" : 1976,
      "type" : "VEC2"
    },
    {
      "bufferView" : 5,
      "componentType" : 5126,
      "count" : 1976,
      "type" : "VEC2"
    },
    {
      "bufferView" : 6,
      "componentType" : 5126,
      "count" : 1976,
      "type" : "VEC2"
    },
    {
      "bufferView" : 7,
      "componentType" : 5123,
      "count" : 8280,
      "type" : "SCALAR"
    },
    {
      "bufferView" : 8,
      "min" : [ -0.319296, -9.92045e-05, -0.229208 ],
      "max" : [ 0.319296, 0.168821, 0.229679 ],
      "componentType" : 5126,
      "count" : 1934,
      "type" : "VEC3"
    },
    {
      "bufferView" : 9,
      "componentType" : 5126,
      "count" : 1934,
      "type" : "VEC3"
    },
    {
      "bufferView" : 10,
      "componentType" : 5126,
      "count" : 1934,
      "type" : "VEC4"
    },
    {
      "bufferView" : 11,
      "componentType" : 5126,
      "count" : 1934,
      "type" : "VEC2"
    },
    {
      "bufferView" : 12,
      "componentType" : 5126,
      "count" : 1934,
      "type" : "VEC2"
    },
    {
      "bufferView" : 13,
      "componentType" : 5126,
      "count" : 1934,
      "type" : "VEC2"
    }
  ]
}
