{
  "asset" : {
    "generator" : "UE Viewer (umodel) build 1590",
    "version" : "2.0"
  },
  "scene" : 0,
  "scenes" : [
    {
      "nodes" : [ 0 ]
    }
  ],
  "nodes" : [
    {
      "name" : "SM_Navigator",
      "mesh" : 0
    }
  ],
  "materials" : [
    {
      "name" : "MI_Base_Wall",
      "pbrMetallicRoughness" : {
        "baseColorFactor" : [ 0.3, 0.3, 0.3, 1.0 ],
        "metallicFactor" : 0.1,
        "roughnessFactor" : 0.5
      }
    },
    {
      "name" : "MI_Mesh_Decal_Inst3",
      "pbrMetallicRoughness" : {
        "baseColorFactor" : [ 0.9, 0.3, 0.3, 1.0 ],
        "metallicFactor" : 0.1,
        "roughnessFactor" : 0.5
      }
    },
    {
      "name" : "MI_NormandyMonitor_1",
      "pbrMetallicRoughness" : {
        "baseColorFactor" : [ 0.3, 0.9, 0.3, 1.0 ],
        "metallicFactor" : 0.1,
        "roughnessFactor" : 0.5
      }
    }
  ],
  "meshes" : [
    {
      "primitives" : [
        {
          "attributes" : {
            "POSITION" : 1,
            "NORMAL" : 2,
            "TANGENT" : 3,
            "TEXCOORD_0" : 4,
            "TEXCOORD_1" : 5,
            "TEXCOORD_2" : 6,
            "TEXCOORD_3" : 7,
            "TEXCOORD_4" : 8,
            "TEXCOORD_5" : 9,
            "TEXCOORD_6" : 10
          },
          "indices" : 0,
          "material" : 0
        },
        {
          "attributes" : {
            "POSITION" : 12,
            "NORMAL" : 13,
            "TANGENT" : 14,
            "TEXCOORD_0" : 15,
            "TEXCOORD_1" : 16,
            "TEXCOORD_2" : 17,
            "TEXCOORD_3" : 18,
            "TEXCOORD_4" : 19,
            "TEXCOORD_5" : 20,
            "TEXCOORD_6" : 21
          },
          "indices" : 11,
          "material" : 1
        },
        {
          "attributes" : {
            "POSITION" : 23,
            "NORMAL" : 24,
            "TANGENT" : 25,
            "TEXCOORD_0" : 26,
            "TEXCOORD_1" : 27,
            "TEXCOORD_2" : 28,
            "TEXCOORD_3" : 29,
            "TEXCOORD_4" : 30,
            "TEXCOORD_5" : 31,
            "TEXCOORD_6" : 32
          },
          "indices" : 22,
          "material" : 2
        }
      ],
      "name" : "SM_Navigator"
    }
  ],
  "buffers" : [
    {
      "uri" : "SM_Navigator.bin",
      "byteLength" : 175452
    }
  ],
  "bufferViews" : [
    {
      "buffer" : 0,
      "byteOffset" : 0,
      "byteLength" : 9132
    },
    {
      "buffer" : 0,
      "byteOffset" : 9132,
      "byteLength" : 18864
    },
    {
      "buffer" : 0,
      "byteOffset" : 27996,
      "byteLength" : 18864
    },
    {
      "buffer" : 0,
      "byteOffset" : 46860,
      "byteLength" : 25152
    },
    {
      "buffer" : 0,
      "byteOffset" : 72012,
      "byteLength" : 12576
    },
    {
      "buffer" : 0,
      "byteOffset" : 84588,
      "byteLength" : 12576
    },
    {
      "buffer" : 0,
      "byteOffset" : 97164,
      "byteLength" : 12576
    },
    {
      "buffer" : 0,
      "byteOffset" : 109740,
      "byteLength" : 12576
    },
    {
      "buffer" : 0,
      "byteOffset" : 122316,
      "byteLength" : 12576
    },
    {
      "buffer" : 0,
      "byteOffset" : 134892,
      "byteLength" : 12576
    },
    {
      "buffer" : 0,
      "byteOffset" : 147468,
      "byteLength" : 12576
    },
    {
      "buffer" : 0,
      "byteOffset" : 160044,
      "byteLength" : 540
    },
    {
      "buffer" : 0,
      "byteOffset" : 160584,
      "byteLength" : 1656
    },
    {
      "buffer" : 0,
      "byteOffset" : 162240,
      "byteLength" : 1656
    },
    {
      "buffer" : 0,
      "byteOffset" : 163896,
      "byteLength" : 2208
    },
    {
      "buffer" : 0,
      "byteOffset" : 166104,
      "byteLength" : 1104
    },
    {
      "buffer" : 0,
      "byteOffset" : 167208,
      "byteLength" : 1104
    },
    {
      "buffer" : 0,
      "byteOffset" : 168312,
      "byteLength" : 1104
    },
    {
      "buffer" : 0,
      "byteOffset" : 169416,
      "byteLength" : 1104
    },
    {
      "buffer" : 0,
      "byteOffset" : 170520,
      "byteLength" : 1104
    },
    {
      "buffer" : 0,
      "byteOffset" : 171624,
      "byteLength" : 1104
    },
    {
      "buffer" : 0,
      "byteOffset" : 172728,
      "byteLength" : 1104
    },
    {
      "buffer" : 0,
      "byteOffset" : 173832,
      "byteLength" : 84
    },
    {
      "buffer" : 0,
      "byteOffset" : 173916,
      "byteLength" : 192
    },
    {
      "buffer" : 0,
      "byteOffset" : 174108,
      "byteLength" : 192
    },
    {
      "buffer" : 0,
      "byteOffset" : 174300,
      "byteLength" : 256
    },
    {
      "buffer" : 0,
      "byteOffset" : 174556,
      "byteLength" : 128
    },
    {
      "buffer" : 0,
      "byteOffset" : 174684,
      "byteLength" : 128
    },
    {
      "buffer" : 0,
      "byteOffset" : 174812,
      "byteLength" : 128
    },
    {
      "buffer" : 0,
      "byteOffset" : 174940,
      "byteLength" : 128
    },
    {
      "buffer" : 0,
      "byteOffset" : 175068,
      "byteLength" : 128
    },
    {
      "buffer" : 0,
      "byteOffset" : 175196,
      "byteLength" : 128
    },
    {
      "buffer" : 0,
      "byteOffset" : 175324,
      "byteLength" : 128
    }
  ],
  "accessors" : [
    {
      "bufferView" : 0,
      "componentType" : 5123,
      "count" : 4566,
      "type" : "SCALAR"
    },
    {
      "bufferView" : 1,
      "min" : [ -0.260119, -0.22003, -0.345978 ],
      "max" : [ 0.25826, 0.220839, 0.345751 ],
      "componentType" : 5126,
      "count" : 1572,
      "type" : "VEC3"
    },
    {
      "bufferView" : 2,
      "componentType" : 5126,
      "count" : 1572,
      "type" : "VEC3"
    },
    {
      "bufferView" : 3,
      "componentType" : 5126,
      "count" : 1572,
      "type" : "VEC4"
    },
    {
      "bufferView" : 4,
      "componentType" : 5126,
      "count" : 1572,
      "type" : "VEC2"
    },
    {
      "bufferView" : 5,
      "componentType" : 5126,
      "count" : 1572,
      "type" : "VEC2"
    },
    {
      "bufferView" : 6,
      "componentType" : 5126,
      "count" : 1572,
      "type" : "VEC2"
    },
    {
      "bufferView" : 7,
      "componentType" : 5126,
      "count" : 1572,
      "type" : "VEC2"
    },
    {
      "bufferView" : 8,
      "componentType" : 5126,
      "count" : 1572,
      "type" : "VEC2"
    },
    {
      "bufferView" : 9,
      "componentType" : 5126,
      "count" : 1572,
      "type" : "VEC2"
    },
    {
      "bufferView" : 10,
      "componentType" : 5126,
      "count" : 1572,
      "type" : "VEC2"
    },
    {
      "bufferView" : 11,
      "componentType" : 5123,
      "count" : 270,
      "type" : "SCALAR"
    },
    {
      "bufferView" : 12,
      "min" : [ -0.227201, -0.220839, -0.346144 ],
      "max" : [ 0.260119, 0.191465, 0.346144 ],
      "componentType" : 5126,
      "count" : 138,
      "type" : "VEC3"
    },
    {
      "bufferView" : 13,
      "componentType" : 5126,
      "count" : 138,
      "type" : "VEC3"
    },
    {
      "bufferView" : 14,
      "componentType" : 5126,
      "count" : 138,
      "type" : "VEC4"
    },
    {
      "bufferView" : 15,
      "componentType" : 5126,
      "count" : 138,
      "type" : "VEC2"
    },
    {
      "bufferView" : 16,
      "componentType" : 5126,
      "count" : 138,
      "type" : "VEC2"
    },
    {
      "bufferView" : 17,
      "componentType" : 5126,
      "count" : 138,
      "type" : "VEC2"
    },
    {
      "bufferView" : 18,
      "componentType" : 5126,
      "count" : 138,
      "type" : "VEC2"
    },
    {
      "bufferView" : 19,
      "componentType" : 5126,
      "count" : 138,
      "type" : "VEC2"
    },
    {
      "bufferView" : 20,
      "componentType" : 5126,
      "count" : 138,
      "type" : "VEC2"
    },
    {
      "bufferView" : 21,
      "componentType" : 5126,
      "count" : 138,
      "type" : "VEC2"
    },
    {
      "bufferView" : 22,
      "componentType" : 5123,
      "count" : 42,
      "type" : "SCALAR"
    },
    {
      "bufferView" : 23,
      "min" : [ -0.168963, 0.100568, -0.146908 ],
      "max" : [ -0.0868961, 0.179726, 0.27697 ],
      "componentType" : 5126,
      "count" : 16,
      "type" : "VEC3"
    },
    {
      "bufferView" : 24,
      "componentType" : 5126,
      "count" : 16,
      "type" : "VEC3"
    },
    {
      "bufferView" : 25,
      "componentType" : 5126,
      "count" : 16,
      "type" : "VEC4"
    },
    {
      "bufferView" : 26,
      "componentType" : 5126,
      "count" : 16,
      "type" : "VEC2"
    },
    {
      "bufferView" : 27,
      "componentType" : 5126,
      "count" : 16,
      "type" : "VEC2"
    },
    {
      "bufferView" : 28,
      "componentType" : 5126,
      "count" : 16,
      "type" : "VEC2"
    },
    {
      "bufferView" : 29,
      "componentType" : 5126,
      "count" : 16,
      "type" : "VEC2"
    },
    {
      "bufferView" : 30,
      "componentType" : 5126,
      "count" : 16,
      "type" : "VEC2"
    },
    {
      "bufferView" : 31,
      "componentType" : 5126,
      "count" : 16,
      "type" : "VEC2"
    },
    {
      "bufferView" : 32,
      "componentType" : 5126,
      "count" : 16,
      "type" : "VEC2"
    }
  ]
}
