{
  "asset" : {
    "generator" : "UE Viewer (umodel) build 1590",
    "version" : "2.0"
  },
  "scene" : 0,
  "scenes" : [
    {
      "nodes" : [ 0 ]
    }
  ],
  "nodes" : [
    {
      "name" : "SM_Inductor",
      "mesh" : 0
    }
  ],
  "materials" : [
    {
      "name" : "MI_Inductor",
      "pbrMetallicRoughness" : {
        "baseColorFactor" : [ 0.3, 0.3, 0.3, 1.0 ],
        "metallicFactor" : 0.1,
        "roughnessFactor" : 0.5
      }
    },
    {
      "name" : "MI_Battery",
      "pbrMetallicRoughness" : {
        "baseColorFactor" : [ 0.9, 0.3, 0.3, 1.0 ],
        "metallicFactor" : 0.1,
        "roughnessFactor" : 0.5
      }
    }
  ],
  "meshes" : [
    {
      "primitives" : [
        {
          "attributes" : {
            "POSITION" : 1,
            "NORMAL" : 2,
            "TANGENT" : 3,
            "TEXCOORD_0" : 4,
            "TEXCOORD_1" : 5
          },
          "indices" : 0,
          "material" : 0
        },
        {
          "attributes" : {
            "POSITION" : 7,
            "NORMAL" : 8,
            "TANGENT" : 9,
            "TEXCOORD_0" : 10,
            "TEXCOORD_1" : 11
          },
          "indices" : 6,
          "material" : 1
        }
      ],
      "name" : "SM_Inductor"
    }
  ],
  "buffers" : [
    {
      "uri" : "SM_Inductor.bin",
      "byteLength" : 1593708
    }
  ],
  "bufferViews" : [
    {
      "buffer" : 0,
      "byteOffset" : 0,
      "byteLength" : 51876
    },
    {
      "buffer" : 0,
      "byteOffset" : 51876,
      "byteLength" : 307344
    },
    {
      "buffer" : 0,
      "byteOffset" : 359220,
      "byteLength" : 307344
    },
    {
      "buffer" : 0,
      "byteOffset" : 666564,
      "byteLength" : 409792
    },
    {
      "buffer" : 0,
      "byteOffset" : 1076356,
      "byteLength" : 204896
    },
    {
      "buffer" : 0,
      "byteOffset" : 1281252,
      "byteLength" : 204896
    },
    {
      "buffer" : 0,
      "byteOffset" : 1486148,
      "byteLength" : 4128
    },
    {
      "buffer" : 0,
      "byteOffset" : 1490276,
      "byteLength" : 22164
    },
    {
      "buffer" : 0,
      "byteOffset" : 1512440,
      "byteLength" : 22164
    },
    {
      "buffer" : 0,
      "byteOffset" : 1534604,
      "byteLength" : 29552
    },
    {
      "buffer" : 0,
      "byteOffset" : 1564156,
      "byteLength" : 14776
    },
    {
      "buffer" : 0,
      "byteOffset" : 1578932,
      "byteLength" : 14776
    }
  ],
  "accessors" : [
    {
      "bufferView" : 0,
      "componentType" : 5123,
      "count" : 25938,
      "type" : "SCALAR"
    },
    {
      "bufferView" : 1,
      "min" : [ -0.0960144, -0.0737851, -0.0872421 ],
      "max" : [ 0.0886301, 0.120339, 0.10019 ],
      "componentType" : 5126,
      "count" : 25612,
      "type" : "VEC3"
    },
    {
      "bufferView" : 2,
      "componentType" : 5126,
      "count" : 25612,
      "type" : "VEC3"
    },
    {
      "bufferView" : 3,
      "componentType" : 5126,
      "count" : 25612,
      "type" : "VEC4"
    },
    {
      "bufferView" : 4,
      "componentType" : 5126,
      "count" : 25612,
      "type" : "VEC2"
    },
    {
      "bufferView" : 5,
      "componentType" : 5126,
      "count" : 25612,
      "type" : "VEC2"
    },
    {
      "bufferView" : 6,
      "componentType" : 5123,
      "count" : 2064,
      "type" : "SCALAR"
    },
    {
      "bufferView" : 7,
      "min" : [ -0.0394336, 0.00809388, -0.0562626 ],
      "max" : [ 0.0498801, 0.0855131, 0.0623236 ],
      "componentType" : 5126,
      "count" : 1847,
      "type" : "VEC3"
    },
    {
      "bufferView" : 8,
      "componentType" : 5126,
      "count" : 1847,
      "type" : "VEC3"
    },
    {
      "bufferView" : 9,
      "componentType" : 5126,
      "count" : 1847,
      "type" : "VEC4"
    },
    {
      "bufferView" : 10,
      "componentType" : 5126,
      "count" : 1847,
      "type" : "VEC2"
    },
    {
      "bufferView" : 11,
      "componentType" : 5126,
      "count" : 1847,
      "type" : "VEC2"
    }
  ]
}
