{
  "asset" : {
    "generator" : "UE Viewer (umodel) build 1590",
    "version" : "2.0"
  },
  "scene" : 0,
  "scenes" : [
    {
      "nodes" : [ 0 ]
    }
  ],
  "nodes" : [
    {
      "name" : "SM_O2Candle",
      "mesh" : 0
    }
  ],
  "materials" : [
    {
      "name" : "MI_O2Candle",
      "pbrMetallicRoughness" : {
        "baseColorFactor" : [ 0.3, 0.3, 0.3, 1.0 ],
        "metallicFactor" : 0.1,
        "roughnessFactor" : 0.5
      }
    }
  ],
  "meshes" : [
    {
      "primitives" : [
        {
          "attributes" : {
            "POSITION" : 1,
            "NORMAL" : 2,
            "TANGENT" : 3,
            "TEXCOORD_0" : 4,
            "TEXCOORD_1" : 5,
            "TEXCOORD_2" : 6
          },
          "indices" : 0,
          "material" : 0
        }
      ],
      "name" : "SM_O2Candle"
    }
  ],
  "buffers" : [
    {
      "uri" : "SM_O2Candle.bin",
      "byteLength" : 252328
    }
  ],
  "bufferViews" : [
    {
      "buffer" : 0,
      "byteOffset" : 0,
      "byteLength" : 13416
    },
    {
      "buffer" : 0,
      "byteOffset" : 13416,
      "byteLength" : 44796
    },
    {
      "buffer" : 0,
      "byteOffset" : 58212,
      "byteLength" : 44796
    },
    {
      "buffer" : 0,
      "byteOffset" : 103008,
      "byteLength" : 59728
    },
    {
      "buffer" : 0,
      "byteOffset" : 162736,
      "byteLength" : 29864
    },
    {
      "buffer" : 0,
      "byteOffset" : 192600,
      "byteLength" : 29864
    },
    {
      "buffer" : 0,
      "byteOffset" : 222464,
      "byteLength" : 29864
    }
  ],
  "accessors" : [
    {
      "bufferView" : 0,
      "componentType" : 5123,
      "count" : 6708,
      "type" : "SCALAR"
    },
    {
      "bufferView" : 1,
      "min" : [ -0.0707581, -0.159599, -0.076864 ],
      "max" : [ 0.0707581, 0.159599, 0.076864 ],
      "componentType" : 5126,
      "count" : 3733,
      "type" : "VEC3"
    },
    {
      "bufferView" : 2,
      "componentType" : 5126,
      "count" : 3733,
      "type" : "VEC3"
    },
    {
      "bufferView" : 3,
      "componentType" : 5126,
      "count" : 3733,
      "type" : "VEC4"
    },
    {
      "bufferView" : 4,
      "componentType" : 5126,
      "count" : 3733,
      "type" : "VEC2"
    },
    {
      "bufferView" : 5,
      "componentType" : 5126,
      "count" : 3733,
      "type" : "VEC2"
    },
    {
      "bufferView" : 6,
      "componentType" : 5126,
      "count" : 3733,
      "type" : "VEC2"
    }
  ]
}
