{
  "asset" : {
    "generator" : "UE Viewer (umodel) build 1590",
    "version" : "2.0"
  },
  "scene" : 0,
  "scenes" : [
    {
      "nodes" : [ 0 ]
    }
  ],
  "nodes" : [
    {
      "name" : "SM_RingWithAsteroids",
      "mesh" : 0
    }
  ],
  "materials" : [
    {
      "name" : "MI_rock01",
      "pbrMetallicRoughness" : {
        "baseColorFactor" : [ 0.3, 0.3, 0.3, 1.0 ],
        "metallicFactor" : 0.1,
        "roughnessFactor" : 0.5
      }
    }
  ],
  "meshes" : [
    {
      "primitives" : [
        {
          "attributes" : {
            "POSITION" : 1,
            "NORMAL" : 2,
            "TANGENT" : 3,
            "TEXCOORD_0" : 4,
            "TEXCOORD_1" : 5,
            "TEXCOORD_2" : 6,
            "TEXCOORD_3" : 7
          },
          "indices" : 0,
          "material" : 0
        }
      ],
      "name" : "SM_RingWithAsteroids"
    }
  ],
  "buffers" : [
    {
      "uri" : "SM_RingWithAsteroids.bin",
      "byteLength" : 565488
    }
  ],
  "bufferViews" : [
    {
      "buffer" : 0,
      "byteOffset" : 0,
      "byteLength" : 67824
    },
    {
      "buffer" : 0,
      "byteOffset" : 67824,
      "byteLength" : 82944
    },
    {
      "buffer" : 0,
      "byteOffset" : 150768,
      "byteLength" : 82944
    },
    {
      "buffer" : 0,
      "byteOffset" : 233712,
      "byteLength" : 110592
    },
    {
      "buffer" : 0,
      "byteOffset" : 344304,
      "byteLength" : 55296
    },
    {
      "buffer" : 0,
      "byteOffset" : 399600,
      "byteLength" : 55296
    },
    {
      "buffer" : 0,
      "byteOffset" : 454896,
      "byteLength" : 55296
    },
    {
      "buffer" : 0,
      "byteOffset" : 510192,
      "byteLength" : 55296
    }
  ],
  "accessors" : [
    {
      "bufferView" : 0,
      "componentType" : 5123,
      "count" : 33912,
      "type" : "SCALAR"
    },
    {
      "bufferView" : 1,
      "min" : [ -453.635, -88.2302, -416.445 ],
      "max" : [ 325.422, 57.3161, 378.563 ],
      "componentType" : 5126,
      "count" : 6912,
      "type" : "VEC3"
    },
    {
      "bufferView" : 2,
      "componentType" : 5126,
      "count" : 6912,
      "type" : "VEC3"
    },
    {
      "bufferView" : 3,
      "componentType" : 5126,
      "count" : 6912,
      "type" : "VEC4"
    },
    {
      "bufferView" : 4,
      "componentType" : 5126,
      "count" : 6912,
      "type" : "VEC2"
    },
    {
      "bufferView" : 5,
      "componentType" : 5126,
      "count" : 6912,
      "type" : "VEC2"
    },
    {
      "bufferView" : 6,
      "componentType" : 5126,
      "count" : 6912,
      "type" : "VEC2"
    },
    {
      "bufferView" : 7,
      "componentType" : 5126,
      "count" : 6912,
      "type" : "VEC2"
    }
  ]
}
