{
  "asset" : {
    "generator" : "UE Viewer (umodel) build 1590",
    "version" : "2.0"
  },
  "scene" : 0,
  "scenes" : [
    {
      "nodes" : [ 0 ]
    }
  ],
  "nodes" : [
    {
      "name" : "SM_CruiserWreck_07",
      "mesh" : 0
    }
  ],
  "materials" : [
    {
      "name" : "MI_Metal_Glossy_Tile01",
      "pbrMetallicRoughness" : {
        "baseColorFactor" : [ 0.3, 0.3, 0.3, 1.0 ],
        "metallicFactor" : 0.1,
        "roughnessFactor" : 0.5
      }
    },
    {
      "name" : "MI_Rubber_Matte_Black_A",
      "pbrMetallicRoughness" : {
        "baseColorFactor" : [ 0.9, 0.3, 0.3, 1.0 ],
        "metallicFactor" : 0.1,
        "roughnessFactor" : 0.5
      }
    },
    {
      "name" : "MI_Metal_Matte_A1",
      "pbrMetallicRoughness" : {
        "baseColorFactor" : [ 0.3, 0.9, 0.3, 1.0 ],
        "metallicFactor" : 0.1,
        "roughnessFactor" : 0.5
      }
    }
  ],
  "meshes" : [
    {
      "primitives" : [
        {
          "attributes" : {
            "POSITION" : 1,
            "NORMAL" : 2,
            "TANGENT" : 3,
            "TEXCOORD_0" : 4,
            "TEXCOORD_1" : 5
          },
          "indices" : 0,
          "material" : 0
        },
        {
          "attributes" : {
            "POSITION" : 7,
            "NORMAL" : 8,
            "TANGENT" : 9,
            "TEXCOORD_0" : 10,
            "TEXCOORD_1" : 11
          },
          "indices" : 6,
          "material" : 1
        },
        {
          "attributes" : {
            "POSITION" : 13,
            "NORMAL" : 14,
            "TANGENT" : 15,
            "TEXCOORD_0" : 16,
            "TEXCOORD_1" : 17
          },
          "indices" : 12,
          "material" : 2
        }
      ],
      "name" : "SM_CruiserWreck_07"
    }
  ],
  "buffers" : [
    {
      "uri" : "SM_CruiserWreck_07.bin",
      "byteLength" : 258500
    }
  ],
  "bufferViews" : [
    {
      "buffer" : 0,
      "byteOffset" : 0,
      "byteLength" : 16188
    },
    {
      "buffer" : 0,
      "byteOffset" : 16188,
      "byteLength" : 36288
    },
    {
      "buffer" : 0,
      "byteOffset" : 52476,
      "byteLength" : 36288
    },
    {
      "buffer" : 0,
      "byteOffset" : 88764,
      "byteLength" : 48384
    },
    {
      "buffer" : 0,
      "byteOffset" : 137148,
      "byteLength" : 24192
    },
    {
      "buffer" : 0,
      "byteOffset" : 161340,
      "byteLength" : 24192
    },
    {
      "buffer" : 0,
      "byteOffset" : 185532,
      "byteLength" : 6192
    },
    {
      "buffer" : 0,
      "byteOffset" : 191724,
      "byteLength" : 11040
    },
    {
      "buffer" : 0,
      "byteOffset" : 202764,
      "byteLength" : 11040
    },
    {
      "buffer" : 0,
      "byteOffset" : 213804,
      "byteLength" : 14720
    },
    {
      "buffer" : 0,
      "byteOffset" : 228524,
      "byteLength" : 7360
    },
    {
      "buffer" : 0,
      "byteOffset" : 235884,
      "byteLength" : 7360
    },
    {
      "buffer" : 0,
      "byteOffset" : 243244,
      "byteLength" : 1368
    },
    {
      "buffer" : 0,
      "byteOffset" : 244612,
      "byteLength" : 2976
    },
    {
      "buffer" : 0,
      "byteOffset" : 247588,
      "byteLength" : 2976
    },
    {
      "buffer" : 0,
      "byteOffset" : 250564,
      "byteLength" : 3968
    },
    {
      "buffer" : 0,
      "byteOffset" : 254532,
      "byteLength" : 1984
    },
    {
      "buffer" : 0,
      "byteOffset" : 256516,
      "byteLength" : 1984
    }
  ],
  "accessors" : [
    {
      "bufferView" : 0,
      "componentType" : 5123,
      "count" : 8094,
      "type" : "SCALAR"
    },
    {
      "bufferView" : 1,
      "min" : [ -4.9648, -0.829207, -4.2708 ],
      "max" : [ 5.98322, 2.49957, 3.47275 ],
      "componentType" : 5126,
      "count" : 3024,
      "type" : "VEC3"
    },
    {
      "bufferView" : 2,
      "componentType" : 5126,
      "count" : 3024,
      "type" : "VEC3"
    },
    {
      "bufferView" : 3,
      "componentType" : 5126,
      "count" : 3024,
      "type" : "VEC4"
    },
    {
      "bufferView" : 4,
      "componentType" : 5126,
      "count" : 3024,
      "type" : "VEC2"
    },
    {
      "bufferView" : 5,
      "componentType" : 5126,
      "count" : 3024,
      "type" : "VEC2"
    },
    {
      "bufferView" : 6,
      "componentType" : 5123,
      "count" : 3096,
      "type" : "SCALAR"
    },
    {
      "bufferView" : 7,
      "min" : [ -5.98322, -2.49957, -2.60169 ],
      "max" : [ 5.28522, 1.36749, 4.2708 ],
      "componentType" : 5126,
      "count" : 920,
      "type" : "VEC3"
    },
    {
      "bufferView" : 8,
      "componentType" : 5126,
      "count" : 920,
      "type" : "VEC3"
    },
    {
      "bufferView" : 9,
      "componentType" : 5126,
      "count" : 920,
      "type" : "VEC4"
    },
    {
      "bufferView" : 10,
      "componentType" : 5126,
      "count" : 920,
      "type" : "VEC2"
    },
    {
      "bufferView" : 11,
      "componentType" : 5126,
      "count" : 920,
      "type" : "VEC2"
    },
    {
      "bufferView" : 12,
      "componentType" : 5123,
      "count" : 684,
      "type" : "SCALAR"
    },
    {
      "bufferView" : 13,
      "min" : [ -4.9648, -0.423747, -2.72725 ],
      "max" : [ 5.98322, 2.28357, 2.74505 ],
      "componentType" : 5126,
      "count" : 248,
      "type" : "VEC3"
    },
    {
      "bufferView" : 14,
      "componentType" : 5126,
      "count" : 248,
      "type" : "VEC3"
    },
    {
      "bufferView" : 15,
      "componentType" : 5126,
      "count" : 248,
      "type" : "VEC4"
    },
    {
      "bufferView" : 16,
      "componentType" : 5126,
      "count" : 248,
      "type" : "VEC2"
    },
    {
      "bufferView" : 17,
      "componentType" : 5126,
      "count" : 248,
      "type" : "VEC2"
    }
  ]
}
