{
  "asset" : {
    "generator" : "UE Viewer (umodel) build 1590",
    "version" : "2.0"
  },
  "scene" : 0,
  "scenes" : [
    {
      "nodes" : [ 0 ]
    }
  ],
  "nodes" : [
    {
      "name" : "SM_Desert_CliffRock_01",
      "mesh" : 0
    }
  ],
  "materials" : [
    {
      "name" : "MI_Desert_CliffRock01",
      "pbrMetallicRoughness" : {
        "baseColorFactor" : [ 0.3, 0.3, 0.3, 1.0 ],
        "metallicFactor" : 0.1,
        "roughnessFactor" : 0.5
      }
    }
  ],
  "meshes" : [
    {
      "primitives" : [
        {
          "attributes" : {
            "POSITION" : 1,
            "NORMAL" : 2,
            "TANGENT" : 3,
            "TEXCOORD_0" : 4
          },
          "indices" : 0,
          "material" : 0
        }
      ],
      "name" : "SM_Desert_CliffRock_01"
    }
  ],
  "buffers" : [
    {
      "uri" : "SM_Desert_CliffRock_01.bin",
      "byteLength" : 46128
    }
  ],
  "bufferViews" : [
    {
      "buffer" : 0,
      "byteOffset" : 0,
      "byteLength" : 8304
    },
    {
      "buffer" : 0,
      "byteOffset" : 8304,
      "byteLength" : 9456
    },
    {
      "buffer" : 0,
      "byteOffset" : 17760,
      "byteLength" : 9456
    },
    {
      "buffer" : 0,
      "byteOffset" : 27216,
      "byteLength" : 12608
    },
    {
      "buffer" : 0,
      "byteOffset" : 39824,
      "byteLength" : 6304
    }
  ],
  "accessors" : [
    {
      "bufferView" : 0,
      "componentType" : 5123,
      "count" : 4152,
      "type" : "SCALAR"
    },
    {
      "bufferView" : 1,
      "min" : [ -3.03481, -10.4776, -3.89219 ],
      "max" : [ 3.03481, 10.4776, 3.89219 ],
      "componentType" : 5126,
      "count" : 788,
      "type" : "VEC3"
    },
    {
      "bufferView" : 2,
      "componentType" : 5126,
      "count" : 788,
      "type" : "VEC3"
    },
    {
      "bufferView" : 3,
      "componentType" : 5126,
      "count" : 788,
      "type" : "VEC4"
    },
    {
      "bufferView" : 4,
      "componentType" : 5126,
      "count" : 788,
      "type" : "VEC2"
    }
  ]
}
