{
  "asset" : {
    "generator" : "UE Viewer (umodel) build 1590",
    "version" : "2.0"
  },
  "scene" : 0,
  "scenes" : [
    {
      "nodes" : [ 0 ]
    }
  ],
  "nodes" : [
    {
      "name" : "SM_Plastic",
      "mesh" : 0
    }
  ],
  "materials" : [
    {
      "name" : "MI_Plastic",
      "pbrMetallicRoughness" : {
        "baseColorFactor" : [ 0.3, 0.3, 0.3, 1.0 ],
        "metallicFactor" : 0.1,
        "roughnessFactor" : 0.5
      }
    }
  ],
  "meshes" : [
    {
      "primitives" : [
        {
          "attributes" : {
            "POSITION" : 1,
            "NORMAL" : 2,
            "TANGENT" : 3,
            "TEXCOORD_0" : 4,
            "TEXCOORD_1" : 5
          },
          "indices" : 0,
          "material" : 0
        }
      ],
      "name" : "SM_Plastic"
    }
  ],
  "buffers" : [
    {
      "uri" : "SM_Plastic.bin",
      "byteLength" : 44044
    }
  ],
  "bufferViews" : [
    {
      "buffer" : 0,
      "byteOffset" : 0,
      "byteLength" : 5796
    },
    {
      "buffer" : 0,
      "byteOffset" : 5796,
      "byteLength" : 8196
    },
    {
      "buffer" : 0,
      "byteOffset" : 13992,
      "byteLength" : 8196
    },
    {
      "buffer" : 0,
      "byteOffset" : 22188,
      "byteLength" : 10928
    },
    {
      "buffer" : 0,
      "byteOffset" : 33116,
      "byteLength" : 5464
    },
    {
      "buffer" : 0,
      "byteOffset" : 38580,
      "byteLength" : 5464
    }
  ],
  "accessors" : [
    {
      "bufferView" : 0,
      "componentType" : 5123,
      "count" : 2898,
      "type" : "SCALAR"
    },
    {
      "bufferView" : 1,
      "min" : [ -0.0938762, -0.0942585, -0.0914004 ],
      "max" : [ 0.0936033, 0.0933839, 0.0899527 ],
      "componentType" : 5126,
      "count" : 683,
      "type" : "VEC3"
    },
    {
      "bufferView" : 2,
      "componentType" : 5126,
      "count" : 683,
      "type" : "VEC3"
    },
    {
      "bufferView" : 3,
      "componentType" : 5126,
      "count" : 683,
      "type" : "VEC4"
    },
    {
      "bufferView" : 4,
      "componentType" : 5126,
      "count" : 683,
      "type" : "VEC2"
    },
    {
      "bufferView" : 5,
      "componentType" : 5126,
      "count" : 683,
      "type" : "VEC2"
    }
  ]
}
