{
  "asset" : {
    "generator" : "UE Viewer (umodel) build 1590",
    "version" : "2.0"
  },
  "scene" : 0,
  "scenes" : [
    {
      "nodes" : [ 0 ]
    }
  ],
  "nodes" : [
    {
      "name" : "SM_SculptRock_16",
      "mesh" : 0
    }
  ],
  "materials" : [
    {
      "name" : "MI_SculptRock_16",
      "pbrMetallicRoughness" : {
        "baseColorFactor" : [ 0.3, 0.3, 0.3, 1.0 ],
        "metallicFactor" : 0.1,
        "roughnessFactor" : 0.5
      }
    }
  ],
  "meshes" : [
    {
      "primitives" : [
        {
          "attributes" : {
            "POSITION" : 1,
            "NORMAL" : 2,
            "TANGENT" : 3,
            "TEXCOORD_0" : 4,
            "TEXCOORD_1" : 5
          },
          "indices" : 0,
          "material" : 0
        }
      ],
      "name" : "SM_SculptRock_16"
    }
  ],
  "buffers" : [
    {
      "uri" : "SM_SculptRock_16.bin",
      "byteLength" : 175272
    }
  ],
  "bufferViews" : [
    {
      "buffer" : 0,
      "byteOffset" : 0,
      "byteLength" : 29952
    },
    {
      "buffer" : 0,
      "byteOffset" : 29952,
      "byteLength" : 31140
    },
    {
      "buffer" : 0,
      "byteOffset" : 61092,
      "byteLength" : 31140
    },
    {
      "buffer" : 0,
      "byteOffset" : 92232,
      "byteLength" : 41520
    },
    {
      "buffer" : 0,
      "byteOffset" : 133752,
      "byteLength" : 20760
    },
    {
      "buffer" : 0,
      "byteOffset" : 154512,
      "byteLength" : 20760
    }
  ],
  "accessors" : [
    {
      "bufferView" : 0,
      "componentType" : 5123,
      "count" : 14976,
      "type" : "SCALAR"
    },
    {
      "bufferView" : 1,
      "min" : [ -9.29108, -10.3405, -8.60888 ],
      "max" : [ 9.29109, 28.9265, 8.60888 ],
      "componentType" : 5126,
      "count" : 2595,
      "type" : "VEC3"
    },
    {
      "bufferView" : 2,
      "componentType" : 5126,
      "count" : 2595,
      "type" : "VEC3"
    },
    {
      "bufferView" : 3,
      "componentType" : 5126,
      "count" : 2595,
      "type" : "VEC4"
    },
    {
      "bufferView" : 4,
      "componentType" : 5126,
      "count" : 2595,
      "type" : "VEC2"
    },
    {
      "bufferView" : 5,
      "componentType" : 5126,
      "count" : 2595,
      "type" : "VEC2"
    }
  ]
}
