{
  "asset" : {
    "generator" : "UE Viewer (umodel) build 1590",
    "version" : "2.0"
  },
  "scene" : 0,
  "scenes" : [
    {
      "nodes" : [ 0 ]
    }
  ],
  "nodes" : [
    {
      "name" : "SM_BrokenShipConstrctor_Full_04",
      "mesh" : 0
    }
  ],
  "materials" : [
    {
      "name" : "MI_Base_WallVP",
      "pbrMetallicRoughness" : {
        "baseColorFactor" : [ 0.3, 0.3, 0.3, 1.0 ],
        "metallicFactor" : 0.1,
        "roughnessFactor" : 0.5
      }
    },
    {
      "name" : "MI_Plastic_Gloss_Yellow_VertexColor",
      "pbrMetallicRoughness" : {
        "baseColorFactor" : [ 0.9, 0.3, 0.3, 1.0 ],
        "metallicFactor" : 0.1,
        "roughnessFactor" : 0.5
      }
    }
  ],
  "meshes" : [
    {
      "primitives" : [
        {
          "attributes" : {
            "POSITION" : 1,
            "NORMAL" : 2,
            "TANGENT" : 3,
            "TEXCOORD_0" : 4,
            "TEXCOORD_1" : 5
          },
          "indices" : 0,
          "material" : 0
        },
        {
          "attributes" : {
            "POSITION" : 7,
            "NORMAL" : 8,
            "TANGENT" : 9,
            "TEXCOORD_0" : 10,
            "TEXCOORD_1" : 11
          },
          "indices" : 6,
          "material" : 1
        }
      ],
      "name" : "SM_BrokenShipConstrctor_Full_04"
    }
  ],
  "buffers" : [
    {
      "uri" : "SM_BrokenShipConstrctor_Full_04.bin",
      "byteLength" : 55988
    }
  ],
  "bufferViews" : [
    {
      "buffer" : 0,
      "byteOffset" : 0,
      "byteLength" : 4148
    },
    {
      "buffer" : 0,
      "byteOffset" : 4148,
      "byteLength" : 9864
    },
    {
      "buffer" : 0,
      "byteOffset" : 14012,
      "byteLength" : 9864
    },
    {
      "buffer" : 0,
      "byteOffset" : 23876,
      "byteLength" : 13152
    },
    {
      "buffer" : 0,
      "byteOffset" : 37028,
      "byteLength" : 6576
    },
    {
      "buffer" : 0,
      "byteOffset" : 43604,
      "byteLength" : 6576
    },
    {
      "buffer" : 0,
      "byteOffset" : 50180,
      "byteLength" : 656
    },
    {
      "buffer" : 0,
      "byteOffset" : 50836,
      "byteLength" : 1104
    },
    {
      "buffer" : 0,
      "byteOffset" : 51940,
      "byteLength" : 1104
    },
    {
      "buffer" : 0,
      "byteOffset" : 53044,
      "byteLength" : 1472
    },
    {
      "buffer" : 0,
      "byteOffset" : 54516,
      "byteLength" : 736
    },
    {
      "buffer" : 0,
      "byteOffset" : 55252,
      "byteLength" : 736
    }
  ],
  "accessors" : [
    {
      "bufferView" : 0,
      "componentType" : 5123,
      "count" : 2073,
      "type" : "SCALAR"
    },
    {
      "bufferView" : 1,
      "min" : [ -10.6136, -1.33263, -10.2563 ],
      "max" : [ 0.00229263, 1.31611, 10.5009 ],
      "componentType" : 5126,
      "count" : 822,
      "type" : "VEC3"
    },
    {
      "bufferView" : 2,
      "componentType" : 5126,
      "count" : 822,
      "type" : "VEC3"
    },
    {
      "bufferView" : 3,
      "componentType" : 5126,
      "count" : 822,
      "type" : "VEC4"
    },
    {
      "bufferView" : 4,
      "componentType" : 5126,
      "count" : 822,
      "type" : "VEC2"
    },
    {
      "bufferView" : 5,
      "componentType" : 5126,
      "count" : 822,
      "type" : "VEC2"
    },
    {
      "bufferView" : 6,
      "componentType" : 5123,
      "count" : 327,
      "type" : "SCALAR"
    },
    {
      "bufferView" : 7,
      "min" : [ -7.35052, -0.962026, -10 ],
      "max" : [ 0.00229263, 0.99118, 9.99999 ],
      "componentType" : 5126,
      "count" : 92,
      "type" : "VEC3"
    },
    {
      "bufferView" : 8,
      "componentType" : 5126,
      "count" : 92,
      "type" : "VEC3"
    },
    {
      "bufferView" : 9,
      "componentType" : 5126,
      "count" : 92,
      "type" : "VEC4"
    },
    {
      "bufferView" : 10,
      "componentType" : 5126,
      "count" : 92,
      "type" : "VEC2"
    },
    {
      "bufferView" : 11,
      "componentType" : 5126,
      "count" : 92,
      "type" : "VEC2"
    }
  ]
}
