{
  "asset" : {
    "generator" : "UE Viewer (umodel) build 1590",
    "version" : "2.0"
  },
  "scene" : 0,
  "scenes" : [
    {
      "nodes" : [ 0 ]
    }
  ],
  "nodes" : [
    {
      "name" : "SM_SculptRock_14",
      "mesh" : 0
    }
  ],
  "materials" : [
    {
      "name" : "MI_SculptRock_16",
      "pbrMetallicRoughness" : {
        "baseColorFactor" : [ 0.3, 0.3, 0.3, 1.0 ],
        "metallicFactor" : 0.1,
        "roughnessFactor" : 0.5
      }
    }
  ],
  "meshes" : [
    {
      "primitives" : [
        {
          "attributes" : {
            "POSITION" : 1,
            "NORMAL" : 2,
            "TANGENT" : 3,
            "TEXCOORD_0" : 4,
            "TEXCOORD_1" : 5
          },
          "indices" : 0,
          "material" : 0
        }
      ],
      "name" : "SM_SculptRock_14"
    }
  ],
  "buffers" : [
    {
      "uri" : "SM_SculptRock_14.bin",
      "byteLength" : 236420
    }
  ],
  "bufferViews" : [
    {
      "buffer" : 0,
      "byteOffset" : 0,
      "byteLength" : 40140
    },
    {
      "buffer" : 0,
      "byteOffset" : 40140,
      "byteLength" : 42060
    },
    {
      "buffer" : 0,
      "byteOffset" : 82200,
      "byteLength" : 42060
    },
    {
      "buffer" : 0,
      "byteOffset" : 124260,
      "byteLength" : 56080
    },
    {
      "buffer" : 0,
      "byteOffset" : 180340,
      "byteLength" : 28040
    },
    {
      "buffer" : 0,
      "byteOffset" : 208380,
      "byteLength" : 28040
    }
  ],
  "accessors" : [
    {
      "bufferView" : 0,
      "componentType" : 5123,
      "count" : 20070,
      "type" : "SCALAR"
    },
    {
      "bufferView" : 1,
      "min" : [ -11.9445, -8.15301, -11.6278 ],
      "max" : [ 11.9445, 40.5354, 11.6278 ],
      "componentType" : 5126,
      "count" : 3505,
      "type" : "VEC3"
    },
    {
      "bufferView" : 2,
      "componentType" : 5126,
      "count" : 3505,
      "type" : "VEC3"
    },
    {
      "bufferView" : 3,
      "componentType" : 5126,
      "count" : 3505,
      "type" : "VEC4"
    },
    {
      "bufferView" : 4,
      "componentType" : 5126,
      "count" : 3505,
      "type" : "VEC2"
    },
    {
      "bufferView" : 5,
      "componentType" : 5126,
      "count" : 3505,
      "type" : "VEC2"
    }
  ]
}
