{
  "asset" : {
    "generator" : "UE Viewer (umodel) build 1590",
    "version" : "2.0"
  },
  "scene" : 0,
  "scenes" : [
    {
      "nodes" : [ 0 ]
    }
  ],
  "nodes" : [
    {
      "name" : "SM_BrakeAsteroid",
      "mesh" : 0
    }
  ],
  "materials" : [
    {
      "name" : "MI_Asteroid05",
      "pbrMetallicRoughness" : {
        "baseColorFactor" : [ 0.3, 0.3, 0.3, 1.0 ],
        "metallicFactor" : 0.1,
        "roughnessFactor" : 0.5
      }
    }
  ],
  "meshes" : [
    {
      "primitives" : [
        {
          "attributes" : {
            "POSITION" : 1,
            "NORMAL" : 2,
            "TANGENT" : 3,
            "TEXCOORD_0" : 4,
            "TEXCOORD_1" : 5,
            "TEXCOORD_2" : 6
          },
          "indices" : 0,
          "material" : 0
        }
      ],
      "name" : "SM_BrakeAsteroid"
    }
  ],
  "buffers" : [
    {
      "uri" : "SM_BrakeAsteroid.bin",
      "byteLength" : 81340
    }
  ],
  "bufferViews" : [
    {
      "buffer" : 0,
      "byteOffset" : 0,
      "byteLength" : 11772
    },
    {
      "buffer" : 0,
      "byteOffset" : 11772,
      "byteLength" : 13044
    },
    {
      "buffer" : 0,
      "byteOffset" : 24816,
      "byteLength" : 13044
    },
    {
      "buffer" : 0,
      "byteOffset" : 37860,
      "byteLength" : 17392
    },
    {
      "buffer" : 0,
      "byteOffset" : 55252,
      "byteLength" : 8696
    },
    {
      "buffer" : 0,
      "byteOffset" : 63948,
      "byteLength" : 8696
    },
    {
      "buffer" : 0,
      "byteOffset" : 72644,
      "byteLength" : 8696
    }
  ],
  "accessors" : [
    {
      "bufferView" : 0,
      "componentType" : 5123,
      "count" : 5886,
      "type" : "SCALAR"
    },
    {
      "bufferView" : 1,
      "min" : [ -0.644044, -0.633549, -0.612731 ],
      "max" : [ 0.657338, 0.667049, 0.588462 ],
      "componentType" : 5126,
      "count" : 1087,
      "type" : "VEC3"
    },
    {
      "bufferView" : 2,
      "componentType" : 5126,
      "count" : 1087,
      "type" : "VEC3"
    },
    {
      "bufferView" : 3,
      "componentType" : 5126,
      "count" : 1087,
      "type" : "VEC4"
    },
    {
      "bufferView" : 4,
      "componentType" : 5126,
      "count" : 1087,
      "type" : "VEC2"
    },
    {
      "bufferView" : 5,
      "componentType" : 5126,
      "count" : 1087,
      "type" : "VEC2"
    },
    {
      "bufferView" : 6,
      "componentType" : 5126,
      "count" : 1087,
      "type" : "VEC2"
    }
  ]
}
